<svg width="64" height="64" viewBox="0 0 64 64" fill="none" xmlns="http://www.w3.org/2000/svg" xmlns:xlink="http://www.w3.org/1999/xlink">
<rect width="64" height="64" fill="#6D364E"/>
<path d="M8 8H56V56H8V8Z" fill="url(#pattern0_1186_422)"/>
<defs>
<pattern id="pattern0_1186_422" patternUnits="userSpaceOnUse" patternTransform="matrix(48 0 0 48 8 8)" preserveAspectRatio="none" viewBox="0 0 48 48" width="1" height="1">
<g id="pattern0_1186_422_inner">
<g clip-path="url(#clip0_1186_422)">
<path d="M48 16H40V14C40 12.8954 39.1046 12 38 12H10C8.89553 12.0001 8.00001 12.8955 8 14V18C8 19.1045 8.89553 19.9999 10 20H36.9268V20.001C40.2378 20.0127 42.0686 20.1048 43.5195 20.8154C45.1138 21.5964 46.4035 22.8863 47.1846 24.4805C48.0001 26.1456 48 28.3107 48 32.6396V35.3594C48 39.6888 48.0003 41.8543 47.1846 43.5195C46.4035 45.1138 45.1138 46.4025 43.5195 47.1836C42.5952 47.6364 41.517 47.837 40 47.9268V46C40 44.8954 39.1046 44 38 44H10C8.89553 44.0001 8.00001 44.8955 8 46V48H0V32H8V34C8 35.1045 8.89553 35.9999 10 36H38C39.1046 36 40 35.1046 40 34V30C40 28.8954 39.1046 28 38 28H10.0723C10.0725 27.9965 10.0721 27.9927 10.0723 27.9893C7.37968 27.9583 5.77817 27.8193 4.48047 27.1836C2.88639 26.4025 1.59642 25.1137 0.81543 23.5195C-0.000167128 21.8544 0 19.6886 0 15.3594V12.6396C-6.67593e-09 8.31065 -0.000148164 6.14559 0.81543 4.48047C1.59648 2.88619 2.88621 1.5965 4.48047 0.81543C5.40471 0.362649 6.48325 0.161847 8 0.0722656V2C8 3.1045 8.89553 3.99989 10 4H38C39.1046 4 40 3.10457 40 2V0H48V16Z" fill="#EFA783"/>
</g>
</g>
</pattern><clipPath id="clip0_1186_422">
<rect width="48" height="48" fill="white"/>
</clipPath>
</defs>
</svg>
